HIERARCHY
ROOT Hips
{
	OFFSET -0.001795 -0.223333 0.028219
	CHANNELS 6 Xposition Yposition Zposition Zrotation Yrotation Xrotation 
	JOINT LeftUpLeg
	{
		OFFSET 0.069520 -0.091406 -0.006815
		CHANNELS 3 Zrotation Yrotation Xrotation
		JOINT LeftLeg
		{
			OFFSET 0.034277 -0.375199 -0.004496
			CHANNELS 3 Zrotation Yrotation Xrotation
			JOINT LeftFoot
			{
				OFFSET -0.013596 -0.397961 -0.043693
				CHANNELS 3 Zrotation Yrotation Xrotation
				JOINT LeftToe
				{
					OFFSET 0.026358 -0.055791 0.119288
					CHANNELS 3 Zrotation Yrotation Xrotation
					End Site
					{
						OFFSET 0.000000 0.000000 0.000000
					}
				}
			}
		}
	}
	JOINT RightUpLeg
	{
		OFFSET -0.067670 -0.090522 -0.004320
		CHANNELS 3 Zrotation Yrotation Xrotation
		JOINT RightLeg
		{
			OFFSET -0.038290 -0.382569 -0.008850
			CHANNELS 3 Zrotation Yrotation Xrotation
			JOINT RightFoot
			{
				OFFSET 0.015774 -0.398415 -0.042312
				CHANNELS 3 Zrotation Yrotation Xrotation
				JOINT RightToe
				{
					OFFSET -0.025372 -0.048144 0.123348
					CHANNELS 3 Zrotation Yrotation Xrotation
					End Site
					{
						OFFSET 0.000000 0.000000 0.000000
					}
				}
			}
		}
	}
	JOINT Spine
	{
		OFFSET -0.002533 0.108963 -0.026696
		CHANNELS 3 Zrotation Yrotation Xrotation
		JOINT Spine1
		{
			OFFSET 0.005487 0.135180 0.001092
			CHANNELS 3 Zrotation Yrotation Xrotation
			JOINT Spine2
			{
				OFFSET 0.001457 0.052922 0.025425
				CHANNELS 3 Zrotation Yrotation Xrotation
				JOINT Neck
				{
					OFFSET -0.002778 0.213870 -0.042857
					CHANNELS 3 Zrotation Yrotation Xrotation
					JOINT Head
					{
						OFFSET 0.005152 0.064970 0.051349
						CHANNELS 3 Zrotation Yrotation Xrotation
						End Site
						{
							OFFSET 0.000000 0.000000 0.000000
						}
					}
				}
				JOINT LeftShoulder
				{
					OFFSET 0.078845 0.121749 -0.034090
					CHANNELS 3 Zrotation Yrotation Xrotation
					JOINT LeftArm
					{
						OFFSET 0.090977 0.030469 -0.008868
						CHANNELS 3 Zrotation Yrotation Xrotation
						JOINT LeftForeArm
						{
							OFFSET 0.259612 -0.012772 -0.027456
							CHANNELS 3 Zrotation Yrotation Xrotation
							JOINT LeftHand
							{
								OFFSET 0.249234 0.008986 -0.001171
								CHANNELS 3 Zrotation Yrotation Xrotation
								End Site
								{
									OFFSET 0.000000 0.000000 0.000000
								}
							}
						}
					}
				}
				JOINT RightShoulder
				{
					OFFSET -0.081759 0.118833 -0.038615
					CHANNELS 3 Zrotation Yrotation Xrotation
					JOINT RightArm
					{
						OFFSET -0.096012 0.032551 -0.009143
						CHANNELS 3 Zrotation Yrotation Xrotation
						JOINT RightForeArm
						{
							OFFSET -0.253742 -0.013329 -0.021401
							CHANNELS 3 Zrotation Yrotation Xrotation
							JOINT RightHand
							{
								OFFSET -0.255298 0.007772 -0.005559
								CHANNELS 3 Zrotation Yrotation Xrotation
								End Site
								{
									OFFSET 0.000000 0.000000 0.000000
								}
							}
						}
					}
				}
			}
		}
	}
}
MOTION
Frames: 16
Frame Time: 0.050000
0.000000 0.928276 0.000000 -2.527374 18.252340 -1.355035 11.735920 -1.282190 10.303774 -5.808790 0.202273 -6.328188 5.845949 13.619562 7.568160 0.000000 0.000000 0.000000 -1.846355 -0.101897 0.622477 3.884765 -0.624229 2.607398 -0.580622 -1.883981 1.572223 0.000000 0.000000 0.000000 -2.168162 -0.069680 2.957039 5.494566 -0.576091 -20.982120 -4.242882 -9.794190 26.326415 1.809196 1.432773 -34.822297 0.000000 0.000000 0.000000 -40.540442 -3.542733 -1.861734 -35.792375 -8.529627 -3.107133 -6.701928 -22.898091 2.291149 0.000000 0.000000 0.000000 34.886307 3.002286 0.989448 40.298721 9.581136 -3.243859 -3.627767 30.940421 0.605207 0.000000 0.000000 0.000000 
-0.001506 0.929199 0.001518 -1.952639 17.949237 0.009091 10.917223 -1.074471 9.157239 -4.819701 0.195858 -6.596806 6.255941 14.460573 8.332397 0.000000 0.000000 0.000000 -3.272081 -0.008399 -0.668853 4.942588 -0.808102 2.469419 -0.078621 -0.736325 2.126875 0.000000 0.000000 0.000000 -2.768757 -0.010739 0.911625 5.818647 -0.719440 -20.192219 -4.985234 -9.894535 26.533125 3.056953 0.843405 -35.324630 0.000000 0.000000 0.000000 -40.108975 -2.835380 -2.208347 -36.503995 -8.846539 -3.130484 -6.481000 -22.350199 2.204552 0.000000 0.000000 0.000000 34.725216 2.388991 0.409631 41.129214 8.969601 -3.445382 -3.711738 33.995683 0.701425 0.000000 0.000000 0.000000 
-0.002561 0.928855 0.002971 -1.789809 18.433277 0.199186 11.090191 -1.086236 8.440009 -5.051038 0.219409 -5.519672 6.203662 14.405244 8.396881 0.000000 0.000000 0.000000 -3.290561 -0.005839 -0.744797 4.909055 -0.813153 2.616013 0.013312 -0.244963 0.981529 0.000000 0.000000 0.000000 -2.606873 -0.013506 1.073483 5.611476 -0.621788 -20.616891 -5.464860 -10.557148 26.896485 2.023596 1.272212 -35.547685 0.000000 0.000000 0.000000 -38.970632 -2.853899 -1.858391 -37.838268 -9.195984 -3.206883 -4.936808 -22.118202 1.900447 0.000000 0.000000 0.000000 33.347079 1.576040 -0.320441 42.053342 8.543111 -3.551783 -2.514415 36.220346 1.126210 0.000000 0.000000 0.000000 
-0.003369 0.929319 0.004547 -1.896323 18.901493 -0.005487 11.141517 -1.139161 8.831923 -4.849055 0.228175 -4.875408 6.998125 15.386908 7.751417 0.000000 0.000000 0.000000 -3.665421 -0.056040 -0.329415 5.640103 -0.945451 2.173214 0.651518 1.224553 1.602458 0.000000 0.000000 0.000000 -2.590010 -0.014303 1.014445 5.791509 -0.655013 -20.925238 -5.966862 -11.209062 27.061707 1.722200 1.386980 -35.834527 0.000000 0.000000 0.000000 -38.920304 -1.935250 -2.406526 -37.720582 -9.604804 -3.125436 -6.355930 -21.506310 2.115384 0.000000 0.000000 0.000000 33.188438 1.267974 -0.677250 41.013034 7.497864 -3.775245 -1.905985 39.969320 1.461657 0.000000 0.000000 0.000000 
-0.004102 0.929513 0.006192 -2.107625 19.085380 -0.283718 11.480998 -1.194845 8.719286 -5.079419 0.239413 -4.450935 6.577415 14.957921 8.461101 0.000000 0.000000 0.000000 -3.396138 -0.093462 0.184251 5.320908 -0.881400 1.866898 0.398206 0.407007 2.399366 0.000000 0.000000 0.000000 -2.693333 -0.021121 1.336397 6.238199 -0.782049 -20.920760 -6.116903 -11.429917 26.415793 1.505175 1.440995 -35.276942 0.000000 0.000000 0.000000 -39.169493 -1.787950 -2.524213 -37.476803 -9.165550 -3.198308 -6.439830 -21.220241 2.097470 0.000000 0.000000 0.000000 32.863458 0.742677 -1.158487 39.607607 7.178114 -3.673826 -1.886368 43.738564 1.571431 0.000000 0.000000 0.000000 
-0.004651 0.929569 0.007852 -2.082305 18.842784 -0.376814 11.327494 -1.187953 9.249106 -5.073401 0.237962 -4.691224 6.617121 15.102008 8.830412 0.000000 0.000000 0.000000 -3.661063 -0.132198 0.592575 5.417317 -0.879106 1.271203 0.793786 1.139488 3.325278 0.000000 0.000000 0.000000 -2.737565 -0.016703 1.044668 6.015742 -0.704057 -21.261353 -6.090650 -11.750127 26.962815 0.748771 1.715114 -35.263861 0.000000 0.000000 0.000000 -39.198077 -1.542522 -2.446945 -36.934554 -9.648412 -3.142238 -6.544157 -20.419936 2.036826 0.000000 0.000000 0.000000 32.183516 0.750796 -1.286909 38.112098 7.438102 -3.485813 -3.496926 49.040977 1.041082 0.000000 0.000000 0.000000 
-0.005300 0.929676 0.009266 -2.161419 18.389096 -0.604894 11.363186 -1.176970 9.442450 -5.417093 0.249842 -4.715582 6.900447 15.566351 9.058654 0.000000 0.000000 0.000000 -3.433459 -0.135316 0.718957 5.066582 -0.818532 1.653315 0.932767 1.428772 3.431548 0.000000 0.000000 0.000000 -2.895371 -0.020343 1.225451 6.324867 -0.808248 -21.186640 -6.152696 -11.872677 26.659910 1.189587 1.392581 -34.483124 0.000000 0.000000 0.000000 -39.081894 -1.456099 -2.257396 -36.060716 -9.492415 -3.182548 -6.974321 -20.157738 2.082604 0.000000 0.000000 0.000000 31.615896 0.115624 -1.934552 36.985292 8.441763 -3.039482 -6.073018 53.786503 -0.202190 0.000000 0.000000 0.000000 
-0.005905 0.929803 0.010248 -2.396236 17.386652 -0.676489 11.202324 -1.117143 9.731585 -5.299948 0.263312 -4.717480 7.520464 16.572079 9.629397 0.000000 0.000000 0.000000 -3.274566 -0.096688 0.402844 5.066374 -0.810951 1.988669 0.945122 1.321739 3.779044 0.000000 0.000000 0.000000 -2.925021 -0.015542 0.957056 6.368810 -0.838202 -21.272427 -6.072179 -11.944368 26.967549 1.447991 1.114193 -33.888993 0.000000 0.000000 0.000000 -38.365713 -1.434442 -1.785834 -35.273180 -9.935273 -3.157504 -7.027176 -19.332255 2.003273 0.000000 0.000000 0.000000 29.767337 0.120731 -2.043115 35.981722 9.573900 -2.632724 -10.826778 58.900704 -2.987800 0.000000 0.000000 0.000000 
-0.006404 0.930254 0.010933 -2.674566 16.460296 -0.767275 11.033715 -1.062572 10.115084 -5.574335 0.270028 -5.171143 8.216148 17.530087 9.501990 0.000000 0.000000 0.000000 -2.964803 -0.068465 0.226270 4.865559 -0.763447 2.096602 1.061285 1.499328 3.982038 0.000000 0.000000 0.000000 -2.829765 -0.011154 0.677993 6.671699 -0.967925 -20.885022 -6.280534 -11.965602 26.600548 2.618210 0.416506 -33.343549 0.000000 0.000000 0.000000 -37.006387 -1.527025 -1.255675 -34.823400 -9.741980 -3.252766 -7.814750 -19.105243 2.107987 0.000000 0.000000 0.000000 27.361507 -0.030151 -2.185954 34.048095 11.494274 -1.957915 -17.456768 62.695679 -7.498537 0.000000 0.000000 0.000000 
-0.006735 0.930700 0.011523 -2.951577 14.914463 -0.773624 10.844708 -0.974939 10.580503 -5.689344 0.296316 -5.245469 8.982605 18.748551 10.328955 0.000000 0.000000 0.000000 -2.728137 -0.019132 -0.167038 4.922648 -0.758513 2.534000 1.026916 1.333714 3.998467 0.000000 0.000000 0.000000 -2.746791 -0.005200 0.373006 6.950664 -1.077458 -21.003560 -6.602066 -11.699719 26.864167 3.134312 -0.015448 -32.588650 0.000000 0.000000 0.000000 -36.011050 -1.313473 -0.938364 -34.517466 -9.962162 -3.302145 -7.726516 -18.914306 2.080167 0.000000 0.000000 0.000000 25.014577 0.212709 -2.043589 31.059525 13.328651 -1.417360 -29.156503 66.097948 -16.016258 0.000000 0.000000 0.000000 
-0.006937 0.931133 0.012356 -2.937026 13.699529 -0.683231 10.596277 -0.887826 10.993053 -6.196644 0.305364 -5.942852 9.535195 19.499590 10.083801 0.000000 0.000000 0.000000 -2.799319 0.007965 -0.395988 4.784664 -0.719089 2.759640 1.284311 1.920942 3.865948 0.000000 0.000000 0.000000 -2.674440 0.003181 -0.102549 6.817057 -1.070841 -20.885996 -7.014953 -11.974406 26.791122 4.054261 -0.666929 -32.246570 0.000000 0.000000 0.000000 -34.426527 -1.133482 -0.408101 -34.898220 -9.742322 -3.539417 -7.614158 -19.284963 2.130972 0.000000 0.000000 0.000000 21.739556 0.324828 -1.974340 27.484908 15.088012 -0.944382 -47.238555 67.389543 -29.561662 0.000000 0.000000 0.000000 
-0.007024 0.931185 0.013368 -3.058740 12.218858 -0.679436 10.454152 -0.804967 11.502027 -6.370618 0.334727 -6.044291 9.887459 20.079031 10.676135 0.000000 0.000000 0.000000 -2.667851 0.031295 -0.538042 4.498721 -0.648497 2.779873 1.451122 2.165820 4.062489 0.000000 0.000000 0.000000 -2.436537 0.010464 -0.419096 7.033347 -1.162084 -20.947204 -7.828581 -11.828595 26.791505 4.699789 -1.284484 -30.665707 0.000000 0.000000 0.000000 -33.630769 -1.170703 0.047843 -34.673187 -9.175240 -3.764749 -8.169523 -20.044598 2.329178 0.000000 0.000000 0.000000 18.459942 0.312092 -1.818039 21.470137 16.888893 -0.690808 -63.466630 63.279865 -39.270466 0.000000 0.000000 0.000000 
-0.007002 0.931465 0.014281 -3.340147 10.814239 -0.766623 10.324317 -0.723163 11.985570 -6.498417 0.351348 -6.472380 10.479923 20.902056 10.252609 0.000000 0.000000 0.000000 -2.568013 0.056125 -0.724411 4.623627 -0.655720 3.288440 1.410934 2.071839 3.846206 0.000000 0.000000 0.000000 -2.290177 0.014155 -0.523050 7.109206 -1.203821 -21.059095 -8.206308 -11.702823 26.975972 6.520071 -2.467636 -29.882804 0.000000 0.000000 0.000000 -32.495671 -1.649190 0.825967 -35.429771 -8.670183 -4.079149 -8.833557 -20.886439 2.578648 0.000000 0.000000 0.000000 14.915093 0.264863 -1.570990 15.269959 20.118395 -0.618527 -71.479020 53.497923 -38.084714 0.000000 0.000000 0.000000 
-0.006824 0.931673 0.014903 -3.397431 9.239643 -0.603641 9.992476 -0.596058 12.345687 -6.482524 0.388139 -6.316754 10.756149 21.365870 10.952979 0.000000 0.000000 0.000000 -2.288056 0.128395 -1.436649 4.118827 -0.554712 3.997366 1.354512 2.038970 3.384891 0.000000 0.000000 0.000000 -1.986370 0.017902 -0.520655 7.163870 -1.223036 -21.396159 -8.902371 -11.526149 26.552275 7.276714 -3.184608 -28.381295 0.000000 0.000000 0.000000 -31.553878 -1.479610 1.069204 -36.168913 -7.858563 -4.416113 -10.247983 -22.296395 3.079899 0.000000 0.000000 0.000000 11.564374 0.609503 -1.135719 8.235837 21.865963 -1.005012 -70.509810 42.956542 -30.164713 0.000000 0.000000 0.000000 
-0.006526 0.932252 0.015243 -3.727710 8.463258 -0.705634 10.007137 -0.563200 12.611199 -6.612233 0.402409 -6.433940 10.893755 21.546536 10.378574 0.000000 0.000000 0.000000 -1.950419 0.164629 -1.776017 3.870855 -0.507450 4.770841 1.678167 2.808958 3.308170 0.000000 0.000000 0.000000 -1.945082 0.001961 0.229088 7.244360 -1.206145 -22.081944 -9.373241 -11.916305 26.422079 8.833707 -4.221110 -27.977178 0.000000 0.000000 0.000000 -31.232854 -1.267877 1.301395 -37.017933 -7.492756 -4.693157 -11.282288 -24.034200 3.617411 0.000000 0.000000 0.000000 9.413355 0.385967 -1.079231 2.126459 23.441024 -1.613615 -66.451009 32.083734 -21.104522 0.000000 0.000000 0.000000 
-0.006158 0.932895 0.015503 -3.894099 7.210603 -0.428911 9.901194 -0.485561 12.711079 -6.392847 0.422680 -6.334700 11.212848 22.060578 11.462465 0.000000 0.000000 0.000000 -1.557512 0.265963 -2.808094 3.063426 -0.351332 5.998616 1.840306 3.353008 2.845889 0.000000 0.000000 0.000000 -1.546976 -0.000499 0.329244 7.119092 -1.137147 -22.788043 -9.831167 -12.496472 26.373846 9.537369 -4.877304 -27.570825 0.000000 0.000000 0.000000 -30.936359 -1.254622 1.884551 -38.129670 -6.981196 -5.110321 -12.225984 -26.070091 4.260297 0.000000 0.000000 0.000000 7.313204 0.264208 -0.989630 -3.140561 24.904026 -2.404571 -63.874995 22.166738 -14.346113 0.000000 0.000000 0.000000 
